<svg width="56" height="96" viewBox="0 0 56 96" fill="none" xmlns="http://www.w3.org/2000/svg">
<path d="M20.4211 91.708V1.70801L0.421143 32.9433" stroke="black"/>
<path d="M32.4211 3.77668L46.4411 3.77668L46.4411 9.87668C46.4411 11.1967 46.1345 12.1967 45.5211 12.8767C44.9078 13.57 43.9945 13.9167 42.7811 13.9167C41.5678 13.9167 40.6545 13.57 40.0411 12.8767C39.4278 12.1967 39.1211 11.1967 39.1211 9.87668L39.1211 4.99668L32.4211 4.99668L32.4211 3.77668ZM40.3011 4.99668L40.3011 9.77668C40.3011 10.7367 40.5011 11.45 40.9011 11.9167C41.3011 12.3967 41.9278 12.6367 42.7811 12.6367C43.6345 12.6367 44.2611 12.3967 44.6611 11.9167C45.0611 11.45 45.2611 10.7367 45.2611 9.77668L45.2611 4.99668L40.3011 4.99668ZM32.4211 13.629L46.4211 19.249L46.4211 20.329L32.4211 25.929L32.4211 24.569L36.6411 22.909L36.6411 16.649L32.4211 14.989L32.4211 13.629ZM37.8211 17.069L37.8211 22.469L44.6811 19.789L37.8211 17.069ZM32.1611 33.15C32.1611 31.8966 32.4678 30.7766 33.0811 29.79C33.6945 28.8166 34.5478 28.05 35.6411 27.49C36.7345 26.93 38.0011 26.65 39.4411 26.65C40.8811 26.65 42.1478 26.93 43.2411 27.49C44.3345 28.05 45.1878 28.8166 45.8011 29.79C46.4145 30.7766 46.7211 31.8966 46.7211 33.15C46.7211 34.1233 46.5478 35.0033 46.2011 35.79C45.8678 36.59 45.3878 37.2766 44.7611 37.85L43.8411 37.01C44.9478 36.0633 45.5011 34.7766 45.5011 33.15C45.5011 32.11 45.2411 31.1966 44.7211 30.41C44.2145 29.6233 43.5078 29.01 42.6011 28.57C41.6945 28.13 40.6411 27.91 39.4411 27.91C38.2545 27.91 37.2011 28.13 36.2811 28.57C35.3611 29.01 34.6411 29.6233 34.1211 30.41C33.6145 31.1966 33.3611 32.11 33.3611 33.15C33.3611 33.8833 33.4345 34.5166 33.5811 35.05C33.7278 35.5833 33.9478 36.0966 34.2411 36.59L38.4011 36.59L38.4011 33.59L39.5811 33.59L39.5811 37.83L33.4811 37.83C33.1878 37.4033 32.8945 36.8033 32.6011 36.03C32.3078 35.27 32.1611 34.31 32.1611 33.15ZM32.4211 40.847L46.4211 40.847L46.4211 49.547L45.2611 49.547L45.2611 42.067L40.1811 42.067L40.1811 48.887L38.9811 48.887L38.9811 42.067L33.6011 42.067L33.6011 49.787L32.4211 49.787L32.4211 40.847ZM32.4211 61.7145L45.2611 61.7145L45.2611 57.1145L46.4211 57.1145L46.4211 67.5745L45.2611 67.5745L45.2611 62.9745L32.4211 62.9745L32.4211 61.7145ZM32.1611 75.4523C32.1611 74.1856 32.4611 73.0723 33.0611 72.1123C33.6611 71.1523 34.5078 70.399 35.6011 69.8523C36.6945 69.319 37.9745 69.0523 39.4411 69.0523C40.9078 69.0523 42.1811 69.319 43.2611 69.8523C44.3545 70.399 45.2011 71.1523 45.8011 72.1123C46.4145 73.0723 46.7211 74.1856 46.7211 75.4523C46.7211 76.7056 46.4145 77.8123 45.8011 78.7723C45.2011 79.7323 44.3545 80.479 43.2611 81.0123C42.1811 81.559 40.9078 81.8323 39.4411 81.8323C37.9745 81.8323 36.6945 81.559 35.6011 81.0123C34.5078 80.479 33.6611 79.7323 33.0611 78.7723C32.4611 77.8123 32.1611 76.7056 32.1611 75.4523ZM33.3611 75.4523C33.3611 76.4523 33.6011 77.3323 34.0811 78.0923C34.5745 78.8656 35.2745 79.4656 36.1811 79.8923C37.1011 80.3323 38.1878 80.5523 39.4411 80.5523C40.6945 80.5523 41.7745 80.3323 42.6811 79.8923C43.5878 79.4656 44.2811 78.8656 44.7611 78.0923C45.2545 77.3323 45.5011 76.4523 45.5011 75.4523C45.5011 74.4523 45.2545 73.5656 44.7611 72.7923C44.2811 72.019 43.5878 71.4123 42.6811 70.9723C41.7745 70.5323 40.6945 70.3123 39.4411 70.3123C38.1878 70.3123 37.1011 70.5323 36.1811 70.9723C35.2745 71.4123 34.5745 72.019 34.0811 72.7923C33.6011 73.5656 33.3611 74.4523 33.3611 75.4523ZM32.4211 84.4407L46.4411 84.4407L46.4411 90.5407C46.4411 91.8607 46.1345 92.8607 45.5211 93.5407C44.9078 94.2341 43.9945 94.5807 42.7811 94.5807C41.5678 94.5807 40.6545 94.2341 40.0411 93.5407C39.4278 92.8607 39.1211 91.8607 39.1211 90.5407L39.1211 85.6607L32.4211 85.6607L32.4211 84.4407ZM40.3011 85.6607L40.3011 90.4407C40.3011 91.4007 40.5011 92.1141 40.9011 92.5807C41.3011 93.0607 41.9278 93.3007 42.7811 93.3007C43.6345 93.3007 44.2611 93.0607 44.6611 92.5807C45.0611 92.1141 45.2611 91.4007 45.2611 90.4407L45.2611 85.6607L40.3011 85.6607Z" fill="black"/>
</svg>
